<svg width="24" height="24" viewBox="0 0 24 24" fill="none" xmlns="http://www.w3.org/2000/svg">
<path d="M21.4566 7.97344C21.29 7.9079 21.1125 7.8745 20.9334 7.875H20.9147C19.9692 7.88906 18.9089 8.77453 18.3525 10.1137C17.6855 11.7159 17.9925 13.3552 19.0434 13.7766C19.2099 13.8421 19.3872 13.8755 19.5661 13.875C20.5162 13.875 21.5911 12.9844 22.1522 11.6362C22.8145 10.0341 22.5028 8.39484 21.4566 7.97344V7.97344Z" stroke="#D5D5D5" stroke-width="1.5" stroke-miterlimit="10"/>
<path d="M15.3563 14.2256C14.0531 12.0633 13.4906 11.25 12 11.25C10.5094 11.25 9.94219 12.0684 8.63907 14.2256C7.52344 16.0706 5.26875 16.2244 4.70625 17.7914C4.59214 18.0784 4.53483 18.3849 4.5375 18.6937C4.5375 19.9683 5.5125 21 6.7125 21C8.20313 21 10.2328 19.8098 12.0047 19.8098C13.7766 19.8098 15.7969 21 17.2875 21C18.4875 21 19.4578 19.9687 19.4578 18.6937C19.4589 18.3846 19.4 18.0781 19.2844 17.7914C18.7219 16.2187 16.4719 16.0706 15.3563 14.2256Z" stroke="#D5D5D5" stroke-width="1.5" stroke-miterlimit="10"/>
<path d="M9.02389 9.1875C9.08665 9.18755 9.14933 9.18285 9.21139 9.17344C10.2994 9.01547 10.9786 7.50797 10.732 5.80547C10.5 4.20047 9.52592 3 8.50733 3C8.44456 2.99995 8.38188 3.00465 8.31983 3.01406C7.23186 3.17203 6.55264 4.67953 6.7992 6.38203C7.03123 7.98234 8.0053 9.1875 9.02389 9.1875Z" stroke="#D5D5D5" stroke-width="1.5" stroke-miterlimit="10"/>
<path d="M17.1994 6.38203C17.4459 4.67953 16.7667 3.17203 15.6787 3.01406C15.6167 3.00465 15.554 2.99995 15.4912 3C14.4726 3 13.5005 4.20047 13.268 5.80547C13.0214 7.50797 13.7006 9.01547 14.7886 9.17344C14.8506 9.18285 14.9133 9.18755 14.9761 9.1875C15.9947 9.1875 16.9687 7.98234 17.1994 6.38203V6.38203Z" stroke="#D5D5D5" stroke-width="1.5" stroke-miterlimit="10"/>
<path d="M4.95794 13.7766C6.00748 13.3547 6.31404 11.7141 5.64794 10.1138C5.08732 8.76563 4.01341 7.875 3.06466 7.875C2.88579 7.87451 2.70844 7.90791 2.54201 7.97344C1.49248 8.39531 1.18591 10.0359 1.85201 11.6363C2.41263 12.9844 3.48654 13.875 4.43529 13.875C4.61416 13.8755 4.79151 13.8421 4.95794 13.7766V13.7766Z" stroke="#D5D5D5" stroke-width="1.5" stroke-miterlimit="10"/>
</svg>
