<svg width="14" height="16" viewBox="0 0 14 16" fill="none" xmlns="http://www.w3.org/2000/svg">
<path d="M13.9532 8.65518L7.47082 1.18447C7.41222 1.11687 7.33978 1.06266 7.2584 1.0255C7.17702 0.988346 7.0886 0.969116 6.99914 0.969116C6.90968 0.969116 6.82126 0.988346 6.73988 1.0255C6.6585 1.06266 6.58606 1.11687 6.52746 1.18447L0.046993 8.65518C0.0274103 8.67769 0.0147128 8.70537 0.0104133 8.7349C0.00611373 8.76443 0.0103932 8.79457 0.0227419 8.82174C0.0350906 8.84891 0.0549881 8.87195 0.0800643 8.88813C0.10514 8.90431 0.134339 8.91294 0.16418 8.91299H1.74621C1.83606 8.91299 1.92199 8.87393 1.98254 8.80557L6.25793 3.87783V14.8759C6.25793 14.9618 6.32824 15.0321 6.41418 15.0321H7.58606C7.67199 15.0321 7.74231 14.9618 7.74231 14.8759V3.87783L12.0177 8.80557C12.0763 8.87393 12.1622 8.91299 12.254 8.91299H13.8361C13.9689 8.91299 14.0411 8.75674 13.9532 8.65518Z" fill="#6D9B6D"/>
</svg>
