<svg width="14" height="16" viewBox="0 0 14 16" fill="none" xmlns="http://www.w3.org/2000/svg">
<path d="M13.8358 7.08789H12.2538C12.1639 7.08789 12.078 7.12695 12.0174 7.19531L7.74204 12.123V1.125C7.74204 1.03906 7.67173 0.96875 7.58579 0.96875H6.41392C6.32798 0.96875 6.25767 1.03906 6.25767 1.125V12.123L1.98228 7.19531C1.92368 7.12695 1.83775 7.08789 1.74595 7.08789H0.163918C0.0311059 7.08789 -0.0411597 7.24609 0.0467309 7.3457L6.52915 14.8164C6.58775 14.884 6.66019 14.9382 6.74157 14.9754C6.82295 15.0125 6.91137 15.0318 7.00083 15.0318C7.09029 15.0318 7.17871 15.0125 7.26009 14.9754C7.34147 14.9382 7.41392 14.884 7.47251 14.8164L13.953 7.3457C14.0409 7.24414 13.9686 7.08789 13.8358 7.08789Z" fill="#EA0114"/>
</svg>
