<svg width="24" height="19" viewBox="0 0 24 19" fill="none" xmlns="http://www.w3.org/2000/svg">
<rect x="6.36145" y="4.0744" width="1.08096" height="3.22203" transform="rotate(-90 6.36145 4.0744)" fill="#324F7B"/>
<rect x="8.5094" y="2.99344" width="1.08096" height="2.0654" transform="rotate(-90 8.5094 2.99344)" fill="#324F7B"/>
<rect x="10.575" y="2.07877" width="2.07877" height="2.14801" transform="rotate(-90 10.575 2.07877)" fill="#324F7B"/>
<rect x="12.7229" y="0.914642" width="0.914661" height="1.98279" transform="rotate(-90 12.7229 0.914642)" fill="#324F7B"/>
<rect x="15.7798" y="4.15756" width="2.24508" height="2.06541" transform="rotate(-90 15.7798 4.15756)" fill="#324F7B"/>
<rect x="16.7711" y="5.15536" width="1.08096" height="3.13942" transform="rotate(-90 16.7711 5.15536)" fill="#324F7B"/>
<rect x="4.37866" y="5.15536" width="1.08096" height="5.20482" transform="rotate(-90 4.37866 5.15536)" fill="#324F7B"/>
<rect x="14.7057" y="6.15317" width="0.997812" height="5.20482" transform="rotate(-90 14.7057 6.15317)" fill="#324F7B"/>
<rect x="8.5094" y="6.15317" width="1.08097" height="3.0568" transform="rotate(-90 8.5094 6.15317)" fill="#324F7B"/>
<rect x="13.7142" y="5.15536" width="0.997812" height="3.0568" transform="rotate(-90 13.7142 5.15536)" fill="#324F7B"/>
<rect x="12.7229" y="1.91248" width="0.997812" height="3.05679" transform="rotate(-90 12.7229 1.91248)" fill="#324F7B"/>
<rect x="10.575" y="2.99344" width="0.914661" height="2.14801" transform="rotate(-90 10.575 2.99344)" fill="#324F7B"/>
<rect x="13.7142" y="4.15756" width="1.08096" height="2.06541" transform="rotate(-90 13.7142 4.15756)" fill="#324F7B"/>
<rect x="14.7057" y="3.07657" width="1.16411" height="1.07401" transform="rotate(-90 14.7057 3.07657)" fill="#324F7B"/>
<rect x="9.5835" y="5.0722" width="2.07877" height="0.991394" transform="rotate(-90 9.5835 5.0722)" fill="#324F7B"/>
<rect x="5.45264" y="6.15317" width="0.997812" height="0.908778" transform="rotate(-90 5.45264 6.15317)" fill="#324F7B"/>
<path d="M8.06681 9.27368C7.92223 8.81053 4.47864 10.2421 4.77766 7H5.88828C5.88828 7 5.84744 7.9406 6.05915 7.96842C6.29721 7.99971 6.61192 8.01937 6.91347 8.03173C7.42355 8.05263 7.89595 8.05263 7.89595 8.05263V7H8.96386C8.96386 7 8.80841 8.8998 9.04929 8.97895C9.69003 9.18947 10.5444 9.15673 10.9715 9.06316C11.3987 8.96959 11.1424 7.12632 11.1424 7.12632L13.4064 7C13.4064 7 13.2814 8.43013 13.5345 8.97895C13.7481 9.44211 16.2827 9.1557 16.4392 9.06316C16.6528 8.93684 16.6101 8.05263 16.6101 8.05263H17.6353C17.6353 8.05263 17.7634 9.24962 17.1227 9.82105C16.2256 10.6211 13.7481 9.82105 13.5345 10.4526C13.3702 10.9386 13.4064 14.7895 13.4064 16.1368C13.4064 17.4842 14.7306 18.4807 15.3713 18.6211C16.012 18.7614 24 18.7474 24 18.7474V19H0V18.7474C0 18.7474 8.10953 18.8737 9.17744 18.6211C10.2453 18.3684 11.1424 17.1053 11.1424 16.1368C11.1424 15.1684 11.2731 11.0842 11.1424 10.5368C11.0117 9.98947 9.73275 10.5116 8.83571 10.1579C8.19496 9.90526 8.21139 9.73684 8.06681 9.27368Z" fill="#324F7B"/>
<rect x="11.5663" y="2.99344" width="1.15663" height="3.15974" fill="#324F7B"/>
<rect x="12.7229" y="3.07657" width="1.16411" height="0.991388" transform="rotate(-90 12.7229 3.07657)" fill="#324F7B"/>
<rect x="3.22205" y="4.0744" width="1.15663" height="2.07878" fill="#324F7B"/>
<rect x="4.29602" y="5.0722" width="1.15663" height="2.16193" fill="#324F7B"/>
<rect x="10.575" y="2.99344" width="1.15663" height="2.07877" fill="#324F7B"/>
<rect x="12.7229" y="3.07657" width="0.991388" height="3.07659" fill="#324F7B"/>
<rect x="13.7142" y="5.0722" width="0.991399" height="2.16193" fill="#324F7B"/>
<rect x="8.5094" y="7.23413" width="1.08096" height="2.14802" transform="rotate(-90 8.5094 7.23413)" fill="#324F7B"/>
<rect x="5.45264" y="7.23413" width="1.08096" height="0.908778" transform="rotate(-90 5.45264 7.23413)" fill="#324F7B"/>
<rect x="14.7057" y="7.23413" width="1.08096" height="1.07401" transform="rotate(-90 14.7057 7.23413)" fill="#324F7B"/>
<rect x="17.8451" y="7.23413" width="1.08096" height="1.07401" transform="rotate(-90 17.8451 7.23413)" fill="#324F7B"/>
<rect x="13.7142" y="3.07657" width="1.16411" height="0.991399" transform="rotate(-90 13.7142 3.07657)" fill="#324F7B"/>
<rect x="6.36145" y="5.15536" width="2.14802" height="2.07877" fill="#324F7B"/>
<rect x="10.575" y="6.15317" width="3.22204" height="2.07877" fill="#324F7B"/>
<rect x="15.7798" y="6.15317" width="2.06541" height="2.07877" fill="#324F7B"/>
</svg>
