<svg width="172" height="17" viewBox="0 0 172 17" fill="none" xmlns="http://www.w3.org/2000/svg">
<path d="M0.605034 16V0.352H5.98103C6.84503 0.352 7.65303 0.44 8.40503 0.615999C9.15703 0.775999 9.81304 1.056 10.373 1.456C10.933 1.84 11.373 2.36 11.693 3.016C12.029 3.656 12.197 4.448 12.197 5.392C12.197 6.304 12.029 7.096 11.693 7.768C11.373 8.44 10.933 8.992 10.373 9.424C9.81304 9.856 9.16504 10.176 8.42903 10.384C7.69303 10.592 6.90903 10.696 6.07703 10.696H4.13303V16H0.605034ZM4.13303 7.888H5.86103C7.78103 7.888 8.74103 7.056 8.74103 5.392C8.74103 4.576 8.48503 4 7.97303 3.664C7.46103 3.328 6.72503 3.16 5.76503 3.16H4.13303V7.888ZM13.7019 16V0.352H19.3419C20.1739 0.352 20.9499 0.432 21.6699 0.592C22.4059 0.751999 23.0459 1.024 23.5899 1.408C24.1339 1.776 24.5659 2.272 24.8859 2.896C25.2059 3.52 25.3659 4.296 25.3659 5.224C25.3659 6.376 25.1099 7.328 24.5979 8.08C24.1019 8.816 23.4299 9.368 22.5819 9.736L26.1339 16H22.1739L19.1739 10.36H17.2299V16H13.7019ZM17.2299 7.552H19.0539C19.9819 7.552 20.6859 7.36 21.1659 6.976C21.6619 6.576 21.9099 5.992 21.9099 5.224C21.9099 4.456 21.6619 3.92 21.1659 3.616C20.6859 3.312 19.9819 3.16 19.0539 3.16H17.2299V7.552ZM33.5807 16.288C32.5247 16.288 31.5567 16.104 30.6767 15.736C29.8127 15.352 29.0687 14.808 28.4447 14.104C27.8207 13.4 27.3327 12.544 26.9807 11.536C26.6447 10.528 26.4767 9.384 26.4767 8.104C26.4767 6.824 26.6447 5.688 26.9807 4.696C27.3327 3.688 27.8207 2.848 28.4447 2.176C29.0687 1.488 29.8127 0.967999 30.6767 0.615999C31.5567 0.247999 32.5247 0.0639992 33.5807 0.0639992C34.6367 0.0639992 35.5967 0.247999 36.4607 0.615999C37.3407 0.967999 38.0927 1.488 38.7167 2.176C39.3407 2.864 39.8207 3.712 40.1567 4.72C40.5087 5.712 40.6847 6.84 40.6847 8.104C40.6847 9.384 40.5087 10.528 40.1567 11.536C39.8207 12.544 39.3407 13.4 38.7167 14.104C38.0927 14.808 37.3407 15.352 36.4607 15.736C35.5967 16.104 34.6367 16.288 33.5807 16.288ZM33.5807 13.24C34.6527 13.24 35.5007 12.784 36.1247 11.872C36.7487 10.944 37.0607 9.688 37.0607 8.104C37.0607 6.536 36.7487 5.312 36.1247 4.432C35.5007 3.552 34.6527 3.112 33.5807 3.112C32.5087 3.112 31.6607 3.552 31.0367 4.432C30.4127 5.312 30.1007 6.536 30.1007 8.104C30.1007 9.688 30.4127 10.944 31.0367 11.872C31.6607 12.784 32.5087 13.24 33.5807 13.24ZM44.7138 16.288C43.5138 16.288 42.5058 16.056 41.6898 15.592C40.8898 15.128 40.2178 14.416 39.6738 13.456L42.0738 11.68C42.3618 12.208 42.6978 12.6 43.0818 12.856C43.4658 13.112 43.8578 13.24 44.2578 13.24C44.8978 13.24 45.3778 13.048 45.6978 12.664C46.0338 12.264 46.2018 11.544 46.2018 10.504V0.352H49.7298V10.792C49.7298 11.544 49.6258 12.256 49.4178 12.928C49.2258 13.6 48.9218 14.184 48.5058 14.68C48.1058 15.176 47.5858 15.568 46.9458 15.856C46.3218 16.144 45.5778 16.288 44.7138 16.288ZM52.1488 16V0.352H61.9408V3.328H55.6768V6.472H61.0048V9.424H55.6768V13.024H62.1808V16H52.1488ZM70.6252 16.288C69.6332 16.288 68.6972 16.12 67.8172 15.784C66.9372 15.432 66.1612 14.92 65.4892 14.248C64.8332 13.576 64.3132 12.744 63.9292 11.752C63.5452 10.744 63.3532 9.584 63.3532 8.272C63.3532 6.976 63.5532 5.824 63.9532 4.816C64.3532 3.792 64.8892 2.928 65.5612 2.224C66.2332 1.52 67.0172 0.983999 67.9132 0.615999C68.8092 0.247999 69.7532 0.0639992 70.7452 0.0639992C71.7532 0.0639992 72.6572 0.271999 73.4572 0.688C74.2572 1.088 74.9212 1.56 75.4492 2.104L73.5772 4.36C73.1772 3.992 72.7532 3.696 72.3052 3.472C71.8732 3.232 71.3772 3.112 70.8172 3.112C70.2892 3.112 69.7852 3.232 69.3052 3.472C68.8412 3.696 68.4332 4.024 68.0812 4.456C67.7452 4.888 67.4732 5.416 67.2652 6.04C67.0732 6.664 66.9772 7.368 66.9772 8.152C66.9772 9.768 67.3212 11.024 68.0092 11.92C68.6972 12.8 69.6172 13.24 70.7692 13.24C71.4092 13.24 71.9772 13.104 72.4732 12.832C72.9852 12.544 73.4332 12.192 73.8172 11.776L75.6892 13.984C74.3772 15.52 72.6892 16.288 70.6252 16.288ZM79.6327 16V3.328H75.3367V0.352H87.4807V3.328H83.1847V16H79.6327Z" fill="#6D9B6D"/>
<path d="M98.8533 16.288C97.8613 16.288 96.9253 16.12 96.0453 15.784C95.1653 15.432 94.3893 14.92 93.7173 14.248C93.0613 13.576 92.5413 12.744 92.1573 11.752C91.7733 10.744 91.5813 9.584 91.5813 8.272C91.5813 6.976 91.7813 5.824 92.1813 4.816C92.5813 3.792 93.1173 2.928 93.7893 2.224C94.4613 1.52 95.2453 0.983999 96.1413 0.615999C97.0373 0.247999 97.9813 0.0639992 98.9733 0.0639992C99.9813 0.0639992 100.885 0.271999 101.685 0.688C102.485 1.088 103.149 1.56 103.677 2.104L101.805 4.36C101.405 3.992 100.981 3.696 100.533 3.472C100.101 3.232 99.6053 3.112 99.0453 3.112C98.5173 3.112 98.0133 3.232 97.5333 3.472C97.0693 3.696 96.6613 4.024 96.3093 4.456C95.9733 4.888 95.7013 5.416 95.4933 6.04C95.3013 6.664 95.2053 7.368 95.2053 8.152C95.2053 9.768 95.5493 11.024 96.2373 11.92C96.9253 12.8 97.8453 13.24 98.9973 13.24C99.6373 13.24 100.205 13.104 100.701 12.832C101.213 12.544 101.661 12.192 102.045 11.776L103.917 13.984C102.605 15.52 100.917 16.288 98.8533 16.288ZM108.766 8.08L108.382 9.52H111.718L111.358 8.08C111.134 7.296 110.918 6.464 110.71 5.584C110.502 4.704 110.294 3.856 110.086 3.04H109.99C109.798 3.872 109.598 4.728 109.39 5.608C109.198 6.472 108.99 7.296 108.766 8.08ZM103.102 16L107.998 0.352H112.246L117.142 16H113.398L112.438 12.28H107.662L106.702 16H103.102ZM117.652 16V0.352H121.276L125.356 8.128L126.892 11.584H126.988C126.908 10.752 126.812 9.824 126.7 8.8C126.604 7.776 126.556 6.8 126.556 5.872V0.352H129.916V16H126.292L122.212 8.2L120.676 4.792H120.58C120.66 5.656 120.748 6.584 120.844 7.576C120.956 8.568 121.012 9.528 121.012 10.456V16H117.652ZM138.773 16.288C137.717 16.288 136.749 16.104 135.869 15.736C135.005 15.352 134.261 14.808 133.637 14.104C133.013 13.4 132.525 12.544 132.173 11.536C131.837 10.528 131.669 9.384 131.669 8.104C131.669 6.824 131.837 5.688 132.173 4.696C132.525 3.688 133.013 2.848 133.637 2.176C134.261 1.488 135.005 0.967999 135.869 0.615999C136.749 0.247999 137.717 0.0639992 138.773 0.0639992C139.829 0.0639992 140.789 0.247999 141.653 0.615999C142.533 0.967999 143.285 1.488 143.909 2.176C144.533 2.864 145.013 3.712 145.349 4.72C145.701 5.712 145.877 6.84 145.877 8.104C145.877 9.384 145.701 10.528 145.349 11.536C145.013 12.544 144.533 13.4 143.909 14.104C143.285 14.808 142.533 15.352 141.653 15.736C140.789 16.104 139.829 16.288 138.773 16.288ZM138.773 13.24C139.845 13.24 140.693 12.784 141.317 11.872C141.941 10.944 142.253 9.688 142.253 8.104C142.253 6.536 141.941 5.312 141.317 4.432C140.693 3.552 139.845 3.112 138.773 3.112C137.701 3.112 136.853 3.552 136.229 4.432C135.605 5.312 135.293 6.536 135.293 8.104C135.293 9.688 135.605 10.944 136.229 11.872C136.853 12.784 137.701 13.24 138.773 13.24ZM147.619 16V0.352H152.995C153.859 0.352 154.667 0.44 155.419 0.615999C156.171 0.775999 156.827 1.056 157.387 1.456C157.947 1.84 158.387 2.36 158.707 3.016C159.043 3.656 159.211 4.448 159.211 5.392C159.211 6.304 159.043 7.096 158.707 7.768C158.387 8.44 157.947 8.992 157.387 9.424C156.827 9.856 156.179 10.176 155.443 10.384C154.707 10.592 153.923 10.696 153.091 10.696H151.147V16H147.619ZM151.147 7.888H152.875C154.795 7.888 155.755 7.056 155.755 5.392C155.755 4.576 155.499 4 154.987 3.664C154.475 3.328 153.739 3.16 152.779 3.16H151.147V7.888ZM163.17 16V10.432L158.442 0.352H162.234L163.626 3.952C163.85 4.544 164.058 5.12 164.25 5.68C164.458 6.224 164.674 6.8 164.898 7.408H164.994C165.218 6.8 165.434 6.224 165.642 5.68C165.866 5.12 166.09 4.544 166.314 3.952L167.73 0.352H171.426L166.698 10.432V16H163.17Z" fill="#45735D"/>
</svg>
