<svg width="93" height="81" viewBox="0 0 182 143" fill="none" xmlns="http://www.w3.org/2000/svg">
        <path d="M65.1566 70.7177C64.0964 67.2757 38.8434 77.9146 41.0361 53.8206H49.1807C49.1807 53.8206 48.8812 60.8107 50.4337 61.0175C52.1795 61.25 54.4874 61.3961 56.6988 61.488C60.4393 61.6433 63.9036 61.6433 63.9036 61.6433V53.8206H71.7349C71.7349 53.8206 70.595 67.9392 72.3615 68.5273C77.0602 70.0919 83.3253 69.8485 86.4578 69.1532C89.5904 68.4578 87.7108 54.7593 87.7108 54.7593L104.313 53.8206C104.313 53.8206 103.397 64.4487 105.253 68.5273C106.819 71.9694 125.407 69.8409 126.554 69.1532C128.12 68.2144 127.807 61.6433 127.807 61.6433H135.325C135.325 61.6433 136.265 70.5389 131.566 74.7855C124.988 80.7308 106.819 74.7855 105.253 79.4792C104.048 83.0906 104.313 111.709 104.313 121.722C104.313 131.735 114.024 139.141 118.723 140.184C123.422 141.227 182 141.123 182 141.123V143H6V141.123C6 141.123 65.4699 142.061 73.3012 140.184C81.1325 138.306 87.7108 128.919 87.7108 121.722C87.7108 114.525 88.669 84.1729 87.7108 80.105C86.7527 76.0372 77.3735 79.9173 70.7952 77.2888C66.0964 75.4114 66.2169 74.1597 65.1566 70.7177Z" fill="#402D2D"/>
        <rect x="48.241" y="30.6652" width="8.13567" height="24.4337" transform="rotate(-90 48.241 30.6652)" fill="#92BA92"/>
        <rect x="64.5302" y="22.5295" width="8.13567" height="15.6627" transform="rotate(-90 64.5302 22.5295)" fill="#92BA92"/>
        <rect x="80.1927" y="15.6455" width="15.6455" height="16.2892" transform="rotate(-90 80.1927 15.6455)" fill="#92BA92"/>
        <rect x="96.4819" y="6.88403" width="6.88403" height="15.0361" transform="rotate(-90 96.4819 6.88403)" fill="#92BA92"/>
        <rect x="119.663" y="31.291" width="16.8972" height="15.6627" transform="rotate(-90 119.663 31.291)" fill="#92BA92"/>
        <rect x="127.181" y="38.8009" width="8.13567" height="23.8072" transform="rotate(-90 127.181 38.8009)" fill="#92BA92"/>
        <rect x="24.4337" y="30.6652" width="8.77108" height="15.6455" fill="#45735D"/>
        <rect x="32.5783" y="38.175" width="8.77108" height="16.2713" fill="#45735D"/>
        <rect x="80.1927" y="22.5295" width="8.77108" height="15.6455" fill="#45735D"/>
        <rect x="96.4819" y="23.1554" width="7.51808" height="23.1554" fill="#45735D"/>
        <rect x="87.7108" y="22.5295" width="8.77108" height="23.7812" fill="#402D2D"/>
        <rect x="104" y="38.175" width="7.51806" height="16.2713" fill="#45735D"/>
        <rect x="64.5302" y="54.4464" width="8.13567" height="16.2892" transform="rotate(-90 64.5302 54.4464)" fill="#45735D"/>
        <rect x="33.2048" y="38.8009" width="8.13567" height="39.4699" transform="rotate(-90 33.2048 38.8009)" fill="#6D9B6D"/>
        <rect x="111.518" y="46.3107" width="7.50985" height="39.4699" transform="rotate(-90 111.518 46.3107)" fill="#6D9B6D"/>
        <rect x="64.5302" y="46.3107" width="8.13567" height="23.1807" transform="rotate(-90 64.5302 46.3107)" fill="#6D9B6D"/>
        <rect x="104" y="38.8009" width="7.50985" height="23.1807" transform="rotate(-90 104 38.8009)" fill="#6D9B6D"/>
        <rect x="96.4819" y="14.3939" width="7.50985" height="23.1807" transform="rotate(-90 96.4819 14.3939)" fill="#6D9B6D"/>
        <rect x="80.1927" y="22.5295" width="6.88403" height="16.2892" transform="rotate(-90 80.1927 22.5295)" fill="#6D9B6D"/>
        <rect x="104" y="31.291" width="8.13567" height="15.6626" transform="rotate(-90 104 31.291)" fill="#6D9B6D"/>
        <rect x="111.518" y="23.1554" width="8.76149" height="8.14458" transform="rotate(-90 111.518 23.1554)" fill="#6D9B6D"/>
        <rect x="72.6747" y="38.175" width="15.6455" height="7.51807" transform="rotate(-90 72.6747 38.175)" fill="#6D9B6D"/>
        <rect x="41.3494" y="46.3107" width="7.50985" height="6.89157" transform="rotate(-90 41.3494 46.3107)" fill="#6D9B6D"/>
        <rect x="41.3494" y="54.4464" width="8.13567" height="6.89157" transform="rotate(-90 41.3494 54.4464)" fill="#45735D"/>
        <rect x="111.518" y="54.4464" width="8.13567" height="8.14458" transform="rotate(-90 111.518 54.4464)" fill="#45735D"/>
        <rect x="135.325" y="54.4464" width="8.13567" height="8.14458" transform="rotate(-90 135.325 54.4464)" fill="#45735D"/>
        <rect x="104" y="23.1554" width="8.76149" height="7.51806" transform="rotate(-90 104 23.1554)" fill="#45735D"/>
        <rect x="96.4819" y="23.1554" width="8.76149" height="7.51808" transform="rotate(-90 96.4819 23.1554)" fill="#402D2D"/>
        <rect x="48.241" y="38.8009" width="16.2892" height="15.6455" fill="#45735D"/>
        <rect x="80.1927" y="46.3107" width="24.4337" height="15.6455" fill="#45735D"/>
        <rect x="119.663" y="46.3107" width="15.6627" height="15.6455" fill="#45735D"/>
        </svg>

